<svg width="100" height="82" viewBox="0 0 100 82" fill="none" xmlns="http://www.w3.org/2000/svg">
<path d="M31.448 82C69.184 82 89.824 50.4494 89.824 23.0889C89.824 22.1928 89.824 21.3007 89.764 20.4126C93.7793 17.4816 97.2454 13.8525 100 9.69526C96.2555 11.3697 92.2833 12.4678 88.216 12.9528C92.499 10.3653 95.7045 6.29547 97.236 1.50083C93.2086 3.91256 88.8026 5.61223 84.208 6.52648C81.1146 3.20707 77.0234 1.00904 72.5675 0.272528C68.1115 -0.463982 63.5393 0.30209 59.5582 2.4522C55.5771 4.6023 52.4093 8.01657 50.5448 12.1667C48.6803 16.3167 48.2231 20.9713 49.244 25.41C41.087 24.9973 33.1072 22.8581 25.8226 19.1313C18.5379 15.4045 12.1113 10.1734 6.96 3.77751C4.33637 8.33556 3.5328 13.7314 4.71291 18.8663C5.89303 24.0013 8.96809 28.4893 13.312 31.4166C10.047 31.3189 6.85312 30.43 4 28.825C4 28.9098 4 28.9986 4 29.0874C4.0013 33.8677 5.64105 38.5004 8.64113 42.1997C11.6412 45.899 15.8169 48.4372 20.46 49.3837C17.4395 50.2151 14.2703 50.3366 11.196 49.739C12.507 53.853 15.0595 57.4507 18.4963 60.0288C21.9331 62.6068 26.0825 64.0364 30.364 64.1176C23.0989 69.8796 14.1242 73.0076 4.884 72.9982C3.25161 72.9951 1.62082 72.8953 0 72.6995C9.38254 78.7758 20.2997 81.9989 31.448 81.9838" fill="white"/>
</svg>
